<?xml version="1.0" encoding="UTF-8" standalone="no"?>
<!DOCTYPE svg PUBLIC "-//W3C//DTD SVG 1.1//EN" "http://www.w3.org/Graphics/SVG/1.1/DTD/svg11.dtd">
<svg width="100%" height="100%" viewBox="0 0 1080 235" version="1.1" xmlns="http://www.w3.org/2000/svg" xmlns:xlink="http://www.w3.org/1999/xlink" xml:space="preserve" xmlns:serif="http://www.serif.com/" style="fill-rule:evenodd;clip-rule:evenodd;stroke-linejoin:round;stroke-miterlimit:2;">
    <g transform="matrix(1,0,0,1,-1232.42,-1457.78)">
        <g id="Page-4" serif:id="Page 4" transform="matrix(1,0,0,0.325049,1232.42,1457.78)">
            <rect x="0" y="0" width="1080" height="720" style="fill:none;"/>
            <clipPath id="_clip1">
                <rect x="0" y="0" width="1080" height="720"/>
            </clipPath>
            <g clip-path="url(#_clip1)">
                <g id="Graphic" transform="matrix(1,0,0,3.07646,0,-746.913)">
                    <g transform="matrix(1,0,0,1,0,364.74)">
                        <path d="M0,-119.118L33.26,-119.118L108.433,-31.197L108.433,-98.749C108.433,-102.701 108.14,-105.84 107.554,-108.16C106.968,-110.481 106.112,-112.199 104.985,-113.317C103.858,-114.432 102.484,-115.141 100.861,-115.444C99.239,-115.745 97.391,-115.895 95.318,-115.895L90.991,-115.895L90.991,-119.118L133.851,-119.118L133.851,-115.895L129.389,-115.895C127.226,-115.895 125.333,-115.721 123.711,-115.379C122.088,-115.036 120.736,-114.262 119.654,-113.059C118.573,-111.854 117.762,-110.137 117.221,-107.902C116.68,-105.666 116.41,-102.617 116.41,-98.749L116.41,0L113.165,0L32.178,-94.366L32.178,-22.173C32.178,-18.132 32.471,-14.974 33.057,-12.698C33.643,-10.42 34.477,-8.721 35.558,-7.606C36.64,-6.488 37.992,-5.801 39.614,-5.543C41.237,-5.285 43.085,-5.156 45.158,-5.156L49.484,-5.156L49.484,-1.933L6.76,-1.933L6.76,-5.156L11.087,-5.156C13.25,-5.156 15.143,-5.328 16.765,-5.672C18.388,-6.014 19.762,-6.768 20.889,-7.928C22.016,-9.088 22.849,-10.784 23.39,-13.02C23.931,-15.255 24.201,-18.306 24.201,-22.173L24.201,-103.648C22.399,-105.711 20.889,-107.342 19.672,-108.547C18.455,-109.75 17.306,-110.738 16.224,-111.512C15.143,-112.285 13.971,-112.93 12.709,-113.446C11.447,-113.961 9.87,-114.52 7.977,-115.122C6.174,-115.637 3.515,-115.895 0,-115.895L0,-119.118Z" style="fill:rgb(246,255,244);fill-rule:nonzero;"/>
                    </g>
                    <g transform="matrix(1,0,0,1,182.982,310.917)">
                        <path d="M0,19.943L-14.576,-13.174L-29.531,19.943L0,19.943ZM1.799,24.455L-31.517,24.455L-37.384,37.361C-38.773,40.55 -39.468,42.926 -39.468,44.489C-39.468,45.151 -39.355,45.753 -39.134,46.294C-38.916,46.836 -38.443,47.332 -37.714,47.783C-36.989,48.235 -35.983,48.627 -34.687,48.956C-33.395,49.287 -31.675,49.513 -29.531,49.633L-29.531,51.889L-56.597,51.889L-56.597,49.633C-54.453,49.332 -52.718,48.881 -51.392,48.279C-50.066,47.68 -48.932,46.851 -47.986,45.798C-47.039,44.747 -46.172,43.377 -45.383,41.692C-44.594,40.009 -43.629,37.932 -42.495,35.465L-12.21,-31.946L-10.031,-31.946L19.875,36.186C21.073,39.015 22.192,41.286 23.232,43.001C24.276,44.715 25.347,46.054 26.451,47.015C27.555,47.979 28.753,48.641 30.049,49.001C31.341,49.363 32.903,49.574 34.732,49.633L34.732,51.889L0.755,51.889L0.755,49.633C4.165,49.513 6.482,48.987 7.714,48.054C8.942,47.121 9.558,45.993 9.558,44.67C9.494,42.926 8.642,40.099 7.004,36.186L1.799,24.455Z" style="fill:rgb(246,255,244);fill-rule:nonzero;"/>
                    </g>
                    <g transform="matrix(1,0,0,1,279.896,362.806)">
                        <path d="M0,-82.03L0,-62.718L-1.42,-62.718C-2.114,-67.89 -3.707,-71.547 -6.201,-73.683C-8.694,-75.817 -12.367,-76.886 -17.227,-76.886L-29.339,-76.886L-29.339,-14.168C-29.339,-11.4 -29.136,-9.219 -28.723,-7.626C-28.314,-6.03 -27.732,-4.842 -26.973,-4.061C-26.218,-3.278 -25.272,-2.783 -24.134,-2.571C-22.999,-2.36 -21.674,-2.256 -20.16,-2.256L-17.227,-2.256L-17.227,0L-53.664,0L-53.664,-2.256L-50.633,-2.256C-49.12,-2.256 -47.794,-2.376 -46.66,-2.618C-45.522,-2.856 -44.576,-3.384 -43.821,-4.197C-43.062,-5.008 -42.48,-6.195 -42.071,-7.76C-41.661,-9.325 -41.455,-11.461 -41.455,-14.168L-41.455,-76.886L-51.771,-76.886C-54.359,-76.886 -56.642,-76.689 -58.633,-76.299C-60.62,-75.906 -62.34,-75.185 -63.789,-74.134C-65.243,-73.079 -66.392,-71.636 -67.245,-69.801C-68.097,-67.966 -68.615,-65.606 -68.807,-62.718L-71.173,-62.718L-71.173,-82.03L0,-82.03Z" style="fill:rgb(246,255,244);fill-rule:nonzero;"/>
                    </g>
                    <g transform="matrix(1,0,0,1,346.052,362.445)">
                        <path d="M0,-79.412L0,-81.668L30.379,-81.668L30.379,-79.412L27.161,-79.412C23.882,-79.412 21.294,-78.058 19.402,-75.351C18.519,-74.146 18.076,-71.229 18.076,-66.597L18.076,-33.389C18.076,-25.326 17.193,-18.918 15.428,-14.166C14.542,-11.88 13.28,-9.745 11.642,-7.76C10.001,-5.774 7.917,-4.045 5.393,-2.571C2.869,-1.096 -0.079,0.077 -3.455,0.949C-6.831,1.819 -10.696,2.256 -15.049,2.256C-19.781,2.256 -23.912,1.864 -27.446,1.083C-30.98,0.303 -34.007,-0.841 -36.531,-2.345C-39.055,-3.848 -41.139,-5.652 -42.777,-7.76C-44.418,-9.865 -45.744,-12.241 -46.754,-14.89C-48.143,-18.558 -48.835,-25.296 -48.835,-35.103L-48.835,-67.138C-48.835,-69.665 -49.011,-71.725 -49.357,-73.321C-49.702,-74.912 -50.254,-76.162 -51.013,-77.065C-51.768,-77.967 -52.733,-78.583 -53.897,-78.914C-55.065,-79.245 -56.44,-79.412 -58.017,-79.412L-61.329,-79.412L-61.329,-81.668L-24.134,-81.668L-24.134,-79.412L-27.446,-79.412C-28.96,-79.412 -30.285,-79.26 -31.42,-78.961C-32.558,-78.658 -33.504,-78.071 -34.259,-77.201C-35.018,-76.327 -35.603,-75.093 -36.013,-73.5C-36.422,-71.906 -36.625,-69.784 -36.625,-67.138L-36.625,-31.403C-36.625,-27.794 -36.373,-24.274 -35.87,-20.845C-35.367,-17.416 -34.323,-14.361 -32.745,-11.685C-31.168,-9.008 -28.915,-6.872 -25.978,-5.278C-23.045,-3.683 -19.15,-2.886 -14.29,-2.886C-11.515,-2.886 -8.833,-3.203 -6.246,-3.835C-3.662,-4.465 -1.311,-5.323 0.804,-6.406C2.918,-7.489 4.762,-8.798 6.34,-10.331C7.917,-11.865 9.085,-13.536 9.844,-15.341C11.481,-18.89 12.303,-25.086 12.303,-33.93L12.303,-67.138C12.303,-72.193 11.703,-75.38 10.505,-76.705C8.863,-78.51 6.437,-79.412 3.219,-79.412L0,-79.412Z" style="fill:rgb(246,255,244);fill-rule:nonzero;"/>
                    </g>
                    <g transform="matrix(1,0,0,1,404.538,322.919)">
                        <path d="M0,-2.256C0.822,-2.256 1.532,-2.24 2.129,-2.211C2.73,-2.179 3.219,-2.165 3.598,-2.165C7.699,-2.165 11.293,-2.616 14.388,-3.518C17.479,-4.421 20.066,-5.685 22.147,-7.309C24.231,-8.933 25.79,-10.843 26.834,-13.04C27.874,-15.235 28.393,-17.626 28.393,-20.213C28.393,-22.741 27.953,-25.071 27.071,-27.207C26.184,-29.343 24.922,-31.178 23.285,-32.712C21.644,-34.247 19.687,-35.434 17.415,-36.277C15.143,-37.119 12.653,-37.54 9.937,-37.54C7.35,-37.54 4.037,-37.147 0,-36.367L0,-2.256ZM61.044,39.887L38.142,39.887L8.991,1.534C7.921,1.595 6.959,1.64 6.107,1.671C5.254,1.701 4.48,1.715 3.786,1.715C3.219,1.715 2.618,1.701 1.99,1.671C1.356,1.64 0.695,1.595 0,1.534L0,25.359C0,28.245 0.207,30.517 0.616,32.172C1.025,33.826 1.626,35.06 2.415,35.871C3.204,36.684 4.15,37.18 5.254,37.361C6.358,37.541 7.605,37.631 8.991,37.631L12.401,37.631L12.401,39.887L-24.509,39.887L-24.509,37.631L-21.197,37.631C-17.667,37.631 -15.079,36.519 -13.438,34.292C-12.555,32.97 -12.112,29.991 -12.112,25.359L-12.112,-27.613C-12.112,-32.668 -12.713,-35.855 -13.911,-37.18C-15.552,-38.985 -17.982,-39.887 -21.197,-39.887L-24.509,-39.887L-24.509,-42.143L6.816,-42.143C11.421,-42.143 15.394,-41.976 18.741,-41.645C22.083,-41.314 24.828,-40.818 26.973,-40.157C29.117,-39.495 31.138,-38.578 33.031,-37.405C34.924,-36.231 36.58,-34.818 38,-33.164C39.419,-31.507 40.538,-29.658 41.361,-27.613C42.18,-25.568 42.589,-23.371 42.589,-21.026C42.589,-15.912 40.888,-11.52 37.481,-7.851C34.071,-4.181 28.742,-1.563 21.486,0L39.183,23.463C41.267,26.17 43.111,28.397 44.718,30.141C46.329,31.887 47.937,33.269 49.548,34.292C51.155,35.316 52.861,36.068 54.656,36.548C56.455,37.031 58.584,37.391 61.044,37.631L61.044,39.887Z" style="fill:rgb(246,255,244);fill-rule:nonzero;"/>
                    </g>
                    <g transform="matrix(1,0,0,1,525.392,310.917)">
                        <path d="M0,19.943L-14.576,-13.174L-29.531,19.943L0,19.943ZM1.799,24.455L-31.517,24.455L-37.384,37.361C-38.773,40.55 -39.468,42.926 -39.468,44.489C-39.468,45.151 -39.355,45.753 -39.134,46.294C-38.916,46.836 -38.443,47.332 -37.714,47.783C-36.989,48.235 -35.983,48.627 -34.687,48.956C-33.395,49.287 -31.675,49.513 -29.531,49.633L-29.531,51.889L-56.597,51.889L-56.597,49.633C-54.453,49.332 -52.718,48.881 -51.392,48.279C-50.066,47.68 -48.932,46.851 -47.986,45.798C-47.039,44.747 -46.172,43.377 -45.383,41.692C-44.594,40.009 -43.629,37.932 -42.495,35.465L-12.21,-31.946L-10.031,-31.946L19.875,36.186C21.073,39.015 22.192,41.286 23.232,43.001C24.276,44.715 25.347,46.054 26.451,47.015C27.555,47.979 28.753,48.641 30.049,49.001C31.341,49.363 32.903,49.574 34.732,49.633L34.732,51.889L0.755,51.889L0.755,49.633C4.165,49.513 6.482,48.987 7.714,48.054C8.942,47.121 9.558,45.993 9.558,44.67C9.494,42.926 8.642,40.099 7.004,36.186L1.799,24.455Z" style="fill:rgb(246,255,244);fill-rule:nonzero;"/>
                    </g>
                    <g transform="matrix(1,0,0,1,636.025,303.427)">
                        <path d="M0,36.73L2.084,37.09L-5.299,59.38L-71.928,59.38L-71.928,57.124L-68.615,57.124C-65.081,57.124 -62.494,56.012 -60.853,53.785C-59.97,52.463 -59.527,49.484 -59.527,44.852L-59.527,-8.12C-59.527,-13.175 -60.128,-16.362 -61.326,-17.687C-62.967,-19.492 -65.397,-20.394 -68.615,-20.394L-71.928,-20.394L-71.928,-22.65L-32.933,-22.65L-32.933,-20.394C-35.269,-20.394 -37.211,-20.288 -38.754,-20.077C-40.302,-19.866 -41.579,-19.565 -42.589,-19.175C-43.599,-18.783 -44.384,-18.317 -44.955,-17.776C-45.522,-17.236 -45.995,-16.632 -46.375,-15.972C-47.005,-14.767 -47.321,-11.669 -47.321,-6.677L-47.321,44.852C-47.321,47.679 -47.099,49.724 -46.656,50.988C-46.217,52.25 -45.331,53.124 -44.009,53.604C-42.871,53.965 -39.558,54.146 -34.071,54.146L-27.822,54.146C-21.197,54.146 -16.562,53.695 -13.911,52.793C-12.585,52.372 -11.323,51.77 -10.125,50.988C-8.927,50.207 -7.759,49.183 -6.625,47.919C-5.487,46.657 -4.383,45.122 -3.313,43.317C-2.238,41.512 -1.134,39.317 0,36.73" style="fill:rgb(246,255,244);fill-rule:nonzero;"/>
                    </g>
                    <g transform="matrix(1,0,0,1,768.966,365.514)">
                        <path d="M0,-122.47L0,-81.99L-3.38,-81.99C-4.912,-92.903 -8.653,-101.242 -14.602,-107C-20.551,-112.757 -28.122,-115.637 -37.316,-115.637C-40.471,-115.637 -43.355,-115.122 -45.969,-114.09C-48.583,-113.059 -50.881,-111.706 -52.864,-110.03C-54.847,-108.354 -56.38,-106.44 -57.461,-104.293C-58.543,-102.144 -59.084,-99.91 -59.084,-97.589C-59.084,-95.441 -58.633,-93.399 -57.732,-91.466C-56.83,-89.532 -54.036,-86.502 -49.349,-82.377C-41.507,-77.65 -34.522,-73.74 -28.393,-70.646C-22.624,-67.636 -14.827,-63.083 -5.003,-56.981C-0.766,-53.887 2.479,-50.213 4.732,-45.958C6.985,-41.704 8.112,-37.257 8.112,-32.616C8.112,-28.232 7.166,-24.062 5.273,-20.111C3.38,-16.157 0.744,-12.698 -2.636,-9.733C-6.017,-6.768 -10.095,-4.403 -14.872,-2.643C-19.649,-0.883 -24.877,0 -30.556,0C-34.161,0 -37.496,-0.258 -40.561,-0.773C-41.102,-0.859 -42.521,-1.225 -44.82,-1.869C-47.118,-2.514 -49.574,-3.178 -52.188,-3.867C-54.802,-4.555 -57.236,-5.199 -59.489,-5.801C-61.743,-6.401 -63.05,-6.703 -63.41,-6.703C-64.942,-6.703 -66.137,-6.272 -66.993,-5.414C-67.849,-4.555 -68.503,-2.75 -68.953,0L-72.333,0L-72.333,-40.222L-68.953,-40.222C-67.331,-31.971 -65.213,-25.654 -62.599,-21.271C-61.337,-19.208 -59.647,-17.294 -57.529,-15.534C-55.411,-13.772 -53.022,-12.225 -50.363,-10.893C-47.704,-9.559 -44.842,-8.528 -41.778,-7.799C-38.713,-7.069 -35.603,-6.703 -32.449,-6.703C-28.663,-6.703 -25.26,-7.219 -22.241,-8.25C-19.221,-9.282 -16.652,-10.678 -14.534,-12.44C-12.416,-14.2 -10.794,-16.243 -9.667,-18.564C-8.54,-20.884 -7.977,-23.334 -7.977,-25.912C-7.977,-28.832 -8.811,-31.756 -10.478,-34.678C-12.146,-37.599 -14.962,-40.479 -18.928,-43.316C-22.804,-45.55 -27.401,-48.17 -32.719,-51.179C-42.904,-56.766 -51.963,-62.137 -59.895,-67.294C-64.311,-70.646 -67.669,-74.32 -69.967,-78.316C-72.266,-82.313 -73.415,-86.76 -73.415,-91.659C-73.415,-95.784 -72.514,-99.716 -70.711,-103.455C-68.908,-107.193 -66.407,-110.481 -63.207,-113.317C-60.008,-116.153 -56.199,-118.388 -51.783,-120.021C-47.366,-121.652 -42.589,-122.47 -37.451,-122.47C-30.961,-122.47 -24.066,-120.966 -16.765,-117.958C-15.053,-117.269 -13.61,-116.712 -12.439,-116.282C-11.267,-115.851 -10.32,-115.68 -9.599,-115.766C-7.977,-115.766 -6.67,-116.196 -5.679,-117.056C-4.687,-117.913 -3.921,-119.718 -3.38,-122.47L0,-122.47Z" style="fill:rgb(246,255,244);fill-rule:nonzero;"/>
                    </g>
                    <g transform="matrix(1,0,0,1,851.154,362.806)">
                        <path d="M0,-82.03L0,-62.718L-1.42,-62.718C-2.114,-67.89 -3.707,-71.547 -6.201,-73.683C-8.694,-75.817 -12.367,-76.886 -17.227,-76.886L-29.339,-76.886L-29.339,-14.168C-29.339,-11.4 -29.136,-9.219 -28.723,-7.626C-28.314,-6.03 -27.732,-4.842 -26.973,-4.061C-26.218,-3.278 -25.272,-2.783 -24.134,-2.571C-23,-2.36 -21.674,-2.256 -20.16,-2.256L-17.227,-2.256L-17.227,0L-53.664,0L-53.664,-2.256L-50.633,-2.256C-49.12,-2.256 -47.794,-2.376 -46.66,-2.618C-45.522,-2.856 -44.576,-3.384 -43.821,-4.197C-43.062,-5.008 -42.48,-6.195 -42.071,-7.76C-41.661,-9.325 -41.455,-11.461 -41.455,-14.168L-41.455,-76.886L-51.771,-76.886C-54.359,-76.886 -56.642,-76.689 -58.633,-76.299C-60.62,-75.906 -62.34,-75.185 -63.789,-74.134C-65.243,-73.079 -66.392,-71.636 -67.245,-69.801C-68.097,-67.966 -68.615,-65.606 -68.807,-62.718L-71.173,-62.718L-71.173,-82.03L0,-82.03Z" style="fill:rgb(246,255,244);fill-rule:nonzero;"/>
                    </g>
                    <g transform="matrix(1,0,0,1,902.546,310.917)">
                        <path d="M0,19.943L-14.576,-13.174L-29.531,19.943L0,19.943ZM1.799,24.455L-31.517,24.455L-37.384,37.361C-38.773,40.55 -39.468,42.926 -39.468,44.489C-39.468,45.151 -39.355,45.753 -39.134,46.294C-38.916,46.836 -38.443,47.332 -37.714,47.783C-36.989,48.235 -35.983,48.627 -34.687,48.956C-33.395,49.287 -31.675,49.513 -29.531,49.633L-29.531,51.889L-56.597,51.889L-56.597,49.633C-54.453,49.332 -52.718,48.881 -51.392,48.279C-50.066,47.68 -48.932,46.851 -47.986,45.798C-47.039,44.747 -46.172,43.377 -45.383,41.692C-44.594,40.009 -43.629,37.932 -42.495,35.465L-12.21,-31.946L-10.031,-31.946L19.875,36.186C21.073,39.015 22.192,41.286 23.232,43.001C24.276,44.715 25.347,46.054 26.451,47.015C27.555,47.979 28.753,48.641 30.049,49.001C31.341,49.363 32.903,49.574 34.732,49.633L34.732,51.889L0.755,51.889L0.755,49.633C4.165,49.513 6.482,48.987 7.714,48.054C8.942,47.121 9.558,45.993 9.558,44.67C9.494,42.926 8.642,40.099 7.004,36.186L1.799,24.455Z" style="fill:rgb(246,255,244);fill-rule:nonzero;"/>
                    </g>
                    <g transform="matrix(1,0,0,1,999.46,362.806)">
                        <path d="M0,-82.03L0,-62.718L-1.42,-62.718C-2.114,-67.89 -3.707,-71.547 -6.201,-73.683C-8.694,-75.817 -12.367,-76.886 -17.227,-76.886L-29.339,-76.886L-29.339,-14.168C-29.339,-11.4 -29.136,-9.219 -28.723,-7.626C-28.314,-6.03 -27.732,-4.842 -26.973,-4.061C-26.218,-3.278 -25.272,-2.783 -24.134,-2.571C-23,-2.36 -21.674,-2.256 -20.16,-2.256L-17.227,-2.256L-17.227,0L-53.664,0L-53.664,-2.256L-50.633,-2.256C-49.12,-2.256 -47.794,-2.376 -46.66,-2.618C-45.522,-2.856 -44.576,-3.384 -43.821,-4.197C-43.062,-5.008 -42.48,-6.195 -42.071,-7.76C-41.661,-9.325 -41.455,-11.461 -41.455,-14.168L-41.455,-76.886L-51.771,-76.886C-54.359,-76.886 -56.642,-76.689 -58.633,-76.299C-60.62,-75.906 -62.34,-75.185 -63.789,-74.134C-65.243,-73.079 -66.392,-71.636 -67.245,-69.801C-68.097,-67.966 -68.615,-65.606 -68.807,-62.718L-71.173,-62.718L-71.173,-82.03L0,-82.03Z" style="fill:rgb(246,255,244);fill-rule:nonzero;"/>
                    </g>
                    <g transform="matrix(1,0,0,1,1030.79,358.295)">
                        <path d="M0,-73.006L0,-40.609L18.835,-40.609C21.61,-40.609 23.852,-40.849 25.553,-41.33C27.258,-41.812 28.599,-42.533 29.576,-43.497C30.556,-44.458 31.232,-45.692 31.611,-47.196C31.99,-48.7 32.242,-50.474 32.37,-52.521L34.736,-52.521L34.736,-24.004L32.37,-24.004C32.054,-26.351 31.69,-28.304 31.281,-29.869C30.871,-31.434 30.207,-32.682 29.294,-33.615C28.378,-34.548 27.101,-35.209 25.459,-35.601C23.818,-35.991 21.61,-36.186 18.835,-36.186L0,-36.186L0,-9.114C0,-7.069 0.034,-5.445 0.098,-4.242C0.158,-3.037 0.409,-2.12 0.853,-1.49C1.296,-0.858 1.99,-0.451 2.937,-0.271C3.883,-0.09 5.269,0 7.098,0L21.674,0C24.134,0 26.218,-0.059 27.919,-0.181C29.625,-0.301 31.093,-0.541 32.321,-0.903C33.553,-1.264 34.642,-1.76 35.588,-2.392C36.535,-3.023 37.541,-3.819 38.615,-4.783C41.139,-7.13 43.821,-10.888 46.66,-16.063L49.214,-16.063L41.74,4.512L-24.509,4.512L-24.509,2.256L-21.482,2.256C-20.663,2.256 -19.811,2.166 -18.928,1.985C-18.046,1.805 -17.208,1.549 -16.42,1.217C-15.631,0.888 -14.921,0.451 -14.29,-0.09C-13.659,-0.632 -13.216,-1.264 -12.964,-1.986C-12.461,-3.307 -12.206,-5.955 -12.206,-9.927L-12.206,-63.169C-12.206,-68.403 -12.743,-71.62 -13.817,-72.825C-15.33,-74.449 -17.884,-75.262 -21.482,-75.262L-24.509,-75.262L-24.509,-77.518L41.74,-77.518L41.74,-59.559L40.223,-59.559C39.592,-62.507 38.916,-64.868 38.191,-66.643C37.463,-68.417 36.501,-69.787 35.303,-70.75C34.105,-71.711 32.573,-72.329 30.714,-72.6C28.851,-72.87 26.47,-73.006 23.567,-73.006L0,-73.006Z" style="fill:rgb(246,255,244);fill-rule:nonzero;"/>
                    </g>
                    <g transform="matrix(1,0,0,1,461.44,412.824)">
                        <path d="M0,23.781L-17.379,-15.71L-35.21,23.781L0,23.781ZM2.144,29.161L-37.58,29.161L-44.577,44.549C-46.232,48.351 -47.06,51.184 -47.06,53.05C-47.06,53.839 -46.928,54.556 -46.665,55.202C-46.401,55.847 -45.837,56.439 -44.972,56.977C-44.107,57.515 -42.903,57.981 -41.361,58.376C-39.818,58.771 -37.768,59.04 -35.21,59.183L-35.21,61.873L-67.486,61.873L-67.486,59.183C-64.928,58.824 -62.859,58.286 -61.279,57.569C-59.699,56.852 -58.345,55.865 -57.216,54.61C-56.088,53.354 -55.053,51.722 -54.113,49.714C-53.172,47.705 -52.025,45.23 -50.671,42.289L-14.558,-38.092L-11.962,-38.092L23.699,43.15C25.129,46.522 26.464,49.23 27.705,51.274C28.947,53.319 30.226,54.915 31.542,56.063C32.859,57.21 34.288,57.999 35.831,58.43C37.373,58.86 39.235,59.111 41.417,59.183L41.417,61.873L0.903,61.873L0.903,59.183C4.966,59.04 7.73,58.412 9.197,57.3C10.665,56.188 11.398,54.843 11.398,53.265C11.323,51.184 10.307,47.813 8.351,43.15L2.144,29.161Z" style="fill:rgb(246,255,244);fill-rule:nonzero;"/>
                    </g>
                    <g transform="matrix(1,0,0,1,526.907,411.198)">
                        <path d="M0,58.528C4.37,59.482 8.11,59.96 11.216,59.96C15.27,59.96 19.038,59.242 22.514,57.811C25.987,56.382 29.003,54.346 31.558,51.71C34.113,49.074 36.113,45.872 37.561,42.106C39.009,38.34 39.734,34.123 39.734,29.454C39.734,24.734 39.022,20.478 37.602,16.685C36.179,12.894 34.179,9.681 31.599,7.045C29.016,4.409 25.962,2.388 22.433,0.98C18.906,-0.425 15.034,-1.13 10.821,-1.13C7.715,-1.13 4.107,-0.625 0,0.376L0,58.528ZM-20.539,63.499L-20.539,61.616L-17.774,61.616C-16.564,61.616 -15.486,61.517 -14.536,61.314C-13.589,61.114 -12.799,60.662 -12.166,59.96C-11.536,59.257 -11.047,58.226 -10.705,56.869C-10.364,55.515 -10.191,53.683 -10.191,51.372L-10.191,7.156C-10.191,2.938 -10.693,0.278 -11.693,-0.828C-13.063,-2.335 -15.091,-3.088 -17.774,-3.088L-20.539,-3.088L-20.539,-4.971L8.69,-4.971C19.326,-4.971 27.489,-3.79 33.179,-1.429C38.812,0.929 43.313,4.797 46.686,10.169C50.11,15.644 51.821,21.894 51.821,28.925C51.821,33.997 50.966,38.642 49.254,42.86C47.542,47.077 44.987,50.721 41.589,53.781C38.194,56.845 33.994,59.23 28.991,60.937C23.987,62.647 18.169,63.499 11.533,63.499L-20.539,63.499Z" style="fill:rgb(246,255,244);fill-rule:nonzero;"/>
                    </g>
                    <g transform="matrix(1,0,0,1,659.778,476.278)">
                        <path d="M0,-70.051L0,-68.168C-1.53,-67.917 -2.818,-67.528 -3.871,-66.999C-4.925,-66.473 -5.859,-65.807 -6.677,-65.003C-7.492,-64.198 -8.216,-63.233 -8.85,-62.103C-9.48,-60.973 -10.113,-59.679 -10.743,-58.223L-35.787,0L-37.762,0L-64.621,-58.977C-65.411,-60.836 -66.135,-62.33 -66.793,-63.46C-67.451,-64.59 -68.176,-65.481 -68.966,-66.132C-69.755,-66.787 -70.702,-67.25 -71.809,-67.528C-72.915,-67.803 -74.31,-68.015 -75.997,-68.168L-75.997,-70.051L-46.687,-70.051L-46.687,-68.168C-48.373,-68.015 -49.743,-67.803 -50.796,-67.528C-51.85,-67.25 -52.652,-66.913 -53.204,-66.509C-53.759,-66.108 -54.129,-65.669 -54.31,-65.191C-54.495,-64.716 -54.586,-64.175 -54.586,-63.574C-54.586,-61.864 -53.771,-59.228 -52.138,-55.665L-33.89,-15.591L-16.984,-55.21C-15.301,-59.129 -14.458,-61.813 -14.458,-63.272C-14.458,-64.327 -15.038,-65.316 -16.194,-66.246C-17.354,-67.176 -19.329,-67.815 -22.119,-68.168L-22.119,-70.051L0,-70.051Z" style="fill:rgb(246,255,244);fill-rule:nonzero;"/>
                    </g>
                    <g transform="matrix(1,0,0,1,694.537,408.11)">
                        <path d="M0,64.704L0,66.587L-30.73,66.587L-30.73,64.704L-28.204,64.704C-26.94,64.704 -25.821,64.617 -24.846,64.441C-23.871,64.265 -23.069,63.837 -22.436,63.159C-21.806,62.483 -21.317,61.452 -20.975,60.071C-20.633,58.69 -20.461,56.822 -20.461,54.461L-20.461,10.244C-20.461,8.69 -20.502,7.395 -20.58,6.367C-20.658,5.336 -20.79,4.496 -20.975,3.841C-21.16,3.19 -21.436,2.676 -21.806,2.299C-22.172,1.922 -22.674,1.558 -23.304,1.205C-24.884,0.404 -26.517,0 -28.204,0L-30.73,0L-30.73,-1.883L0,-1.883L0,0L-2.53,0C-3.793,0 -4.912,0.102 -5.887,0.302C-6.862,0.503 -7.665,0.942 -8.295,1.621C-8.928,2.299 -9.417,3.327 -9.759,4.708C-10.1,6.089 -10.27,7.936 -10.27,10.244L-10.27,54.461C-10.27,56.069 -10.245,57.372 -10.191,58.376C-10.141,59.381 -10.009,60.211 -9.796,60.863C-9.586,61.515 -9.282,62.029 -8.887,62.405C-8.492,62.782 -7.981,63.147 -7.348,63.499C-5.875,64.303 -4.266,64.704 -2.53,64.704L0,64.704Z" style="fill:rgb(246,255,244);fill-rule:nonzero;"/>
                    </g>
                    <g transform="matrix(1,0,0,1,746.91,476.278)">
                        <path d="M0,-71.557L0,-47.905L-1.975,-47.905C-2.871,-54.28 -5.056,-59.153 -8.533,-62.518C-12.009,-65.881 -16.433,-67.564 -21.802,-67.564C-23.649,-67.564 -25.332,-67.262 -26.859,-66.661C-28.389,-66.057 -29.73,-65.268 -30.887,-64.288C-32.047,-63.307 -32.944,-62.189 -33.574,-60.937C-34.207,-59.679 -34.523,-58.375 -34.523,-57.018C-34.523,-55.763 -34.26,-54.57 -33.734,-53.44C-33.207,-52.311 -31.574,-50.541 -28.834,-48.132C-24.254,-45.367 -20.172,-43.083 -16.589,-41.275C-13.219,-39.518 -8.665,-36.857 -2.925,-33.291C-0.448,-31.483 1.448,-29.337 2.765,-26.853C4.081,-24.366 4.74,-21.769 4.74,-19.055C4.74,-16.496 4.185,-14.06 3.081,-11.749C1.975,-9.439 0.433,-7.418 -1.542,-5.685C-3.517,-3.954 -5.9,-2.573 -8.69,-1.542C-11.483,-0.514 -14.536,0 -17.853,0C-19.962,0 -21.909,-0.149 -23.699,-0.451C-24.016,-0.502 -24.846,-0.714 -26.188,-1.091C-27.53,-1.467 -28.966,-1.856 -30.492,-2.259C-32.022,-2.66 -33.442,-3.036 -34.759,-3.389C-36.075,-3.739 -36.84,-3.915 -37.05,-3.915C-37.947,-3.915 -38.643,-3.664 -39.144,-3.162C-39.646,-2.66 -40.025,-1.605 -40.288,0L-42.263,0L-42.263,-23.499L-40.288,-23.499C-39.342,-18.678 -38.103,-14.99 -36.577,-12.428C-35.84,-11.223 -34.853,-10.106 -33.614,-9.074C-32.376,-8.046 -30.981,-7.14 -29.426,-6.363C-27.875,-5.586 -26.201,-4.982 -24.411,-4.555C-22.621,-4.127 -20.802,-3.915 -18.959,-3.915C-16.749,-3.915 -14.762,-4.217 -12.997,-4.821C-11.232,-5.422 -9.73,-6.238 -8.492,-7.269C-7.257,-8.297 -6.307,-9.49 -5.649,-10.847C-4.991,-12.201 -4.661,-13.633 -4.661,-15.139C-4.661,-16.846 -5.15,-18.553 -6.122,-20.262C-7.097,-21.969 -8.743,-23.652 -11.06,-25.308C-13.326,-26.614 -16.013,-28.144 -19.119,-29.902C-25.069,-33.166 -30.364,-36.304 -34.997,-39.317C-37.577,-41.275 -39.539,-43.424 -40.881,-45.759C-42.226,-48.093 -42.897,-50.691 -42.897,-53.554C-42.897,-55.963 -42.37,-58.262 -41.317,-60.447C-40.263,-62.632 -38.802,-64.551 -36.931,-66.21C-35.063,-67.866 -32.837,-69.172 -30.257,-70.125C-27.677,-71.079 -24.884,-71.557 -21.884,-71.557C-18.091,-71.557 -14.063,-70.678 -9.796,-68.921C-8.796,-68.517 -7.953,-68.191 -7.27,-67.94C-6.583,-67.689 -6.031,-67.588 -5.608,-67.638C-4.661,-67.638 -3.9,-67.889 -3.32,-68.392C-2.74,-68.894 -2.292,-69.949 -1.975,-71.557L0,-71.557Z" style="fill:rgb(246,255,244);fill-rule:nonzero;"/>
                    </g>
                    <g transform="matrix(1,0,0,1,796.126,472.587)">
                        <path d="M0,-64.175C-3.633,-64.175 -6.862,-63.434 -9.677,-61.954C-12.495,-60.472 -14.865,-58.361 -16.787,-55.626C-18.712,-52.888 -20.172,-49.574 -21.172,-45.682C-22.172,-41.79 -22.674,-37.408 -22.674,-32.539C-22.674,-27.718 -22.185,-23.312 -21.21,-19.319C-20.238,-15.328 -18.79,-11.888 -16.865,-9.001C-14.944,-6.113 -12.561,-3.877 -9.718,-2.296C-6.875,-0.715 -3.608,0.077 0.078,0.077C3.395,0.077 6.464,-0.527 9.282,-1.731C12.097,-2.936 14.561,-4.807 16.668,-7.345C18.774,-9.879 20.42,-13.116 21.605,-17.059C22.79,-21.001 23.382,-25.709 23.382,-31.182C23.382,-36.356 22.893,-40.986 21.922,-45.081C20.947,-49.173 19.473,-52.637 17.498,-55.474C15.523,-58.311 13.072,-60.472 10.15,-61.954C7.229,-63.434 3.843,-64.175 0,-64.175M1.025,-67.866C5.608,-67.866 9.978,-66.961 14.141,-65.155C18.301,-63.347 21.959,-60.86 25.119,-57.698C28.279,-54.532 30.793,-50.805 32.665,-46.513C34.533,-42.218 35.47,-37.561 35.47,-32.539C35.47,-27.365 34.533,-22.571 32.665,-18.153C30.793,-13.732 28.266,-9.903 25.081,-6.666C21.893,-3.426 18.154,-0.891 13.862,0.941C9.57,2.773 5.003,3.691 0.157,3.691C-4.74,3.691 -9.323,2.812 -13.589,1.055C-17.853,-0.703 -21.555,-3.175 -24.687,-6.364C-27.821,-9.553 -30.295,-13.356 -32.113,-17.776C-33.931,-22.194 -34.837,-27.066 -34.837,-32.39C-34.837,-37.31 -33.931,-41.928 -32.113,-46.247C-30.295,-50.566 -27.796,-54.32 -24.608,-57.509C-21.423,-60.696 -17.643,-63.222 -13.273,-65.078C-8.903,-66.937 -4.135,-67.866 1.025,-67.866" style="fill:rgb(246,255,244);fill-rule:nonzero;"/>
                    </g>
                    <g transform="matrix(1,0,0,1,858.057,441.402)">
                        <path d="M0,-1.88C0.687,-1.88 1.279,-1.868 1.777,-1.844C2.279,-1.817 2.687,-1.805 3.003,-1.805C6.426,-1.805 9.426,-2.182 12.009,-2.935C14.589,-3.688 16.749,-4.743 18.486,-6.101C20.226,-7.455 21.527,-9.048 22.398,-10.883C23.266,-12.715 23.699,-14.712 23.699,-16.87C23.699,-18.98 23.332,-20.926 22.596,-22.708C21.856,-24.489 20.802,-26.022 19.436,-27.302C18.066,-28.584 16.433,-29.573 14.536,-30.279C12.639,-30.981 10.561,-31.334 8.295,-31.334C6.135,-31.334 3.37,-31.005 0,-30.354L0,-1.88ZM50.953,33.295L31.837,33.295L7.505,1.282C6.611,1.333 5.809,1.372 5.097,1.396C4.386,1.42 3.74,1.432 3.16,1.432C2.687,1.432 2.185,1.42 1.661,1.396C1.132,1.372 0.58,1.333 0,1.282L0,21.168C0,23.578 0.172,25.476 0.514,26.854C0.856,28.237 1.357,29.266 2.016,29.944C2.674,30.62 3.464,31.035 4.386,31.185C5.307,31.337 6.348,31.412 7.505,31.412L10.351,31.412L10.351,33.295L-20.458,33.295L-20.458,31.412L-17.693,31.412C-14.746,31.412 -12.586,30.482 -11.216,28.626C-10.48,27.52 -10.11,25.036 -10.11,21.168L-10.11,-23.048C-10.11,-27.266 -10.611,-29.926 -11.611,-31.032C-12.981,-32.538 -15.009,-33.292 -17.693,-33.292L-20.458,-33.292L-20.458,-35.175L5.69,-35.175C9.533,-35.175 12.85,-35.034 15.643,-34.759C18.433,-34.484 20.724,-34.069 22.514,-33.516C24.304,-32.963 25.991,-32.198 27.57,-31.22C29.15,-30.24 30.533,-29.059 31.718,-27.678C32.903,-26.297 33.837,-24.755 34.523,-23.048C35.207,-21.339 35.549,-19.506 35.549,-17.549C35.549,-13.28 34.129,-9.613 31.285,-6.552C28.439,-3.488 23.991,-1.303 17.934,0.003L32.705,19.587C34.445,21.847 35.984,23.703 37.326,25.159C38.671,26.617 40.013,27.771 41.357,28.626C42.699,29.478 44.122,30.106 45.621,30.509C47.122,30.91 48.9,31.212 50.953,31.412L50.953,33.295Z" style="fill:rgb(246,255,244);fill-rule:nonzero;"/>
                    </g>
                    <g transform="matrix(1,0,0,1,957.753,476.278)">
                        <path d="M0,-71.557L0,-47.905L-1.975,-47.905C-2.871,-54.28 -5.056,-59.153 -8.533,-62.518C-12.009,-65.881 -16.433,-67.564 -21.802,-67.564C-23.649,-67.564 -25.332,-67.262 -26.859,-66.661C-28.389,-66.057 -29.73,-65.268 -30.887,-64.288C-32.047,-63.307 -32.944,-62.189 -33.574,-60.937C-34.207,-59.679 -34.523,-58.375 -34.523,-57.018C-34.523,-55.763 -34.26,-54.57 -33.734,-53.44C-33.207,-52.311 -31.574,-50.541 -28.834,-48.132C-24.254,-45.367 -20.172,-43.083 -16.589,-41.275C-13.219,-39.518 -8.665,-36.857 -2.925,-33.291C-0.448,-31.483 1.448,-29.337 2.765,-26.853C4.081,-24.366 4.74,-21.769 4.74,-19.055C4.74,-16.496 4.185,-14.06 3.081,-11.749C1.975,-9.439 0.433,-7.418 -1.542,-5.685C-3.517,-3.954 -5.9,-2.573 -8.69,-1.542C-11.483,-0.514 -14.536,0 -17.853,0C-19.962,0 -21.909,-0.149 -23.699,-0.451C-24.016,-0.502 -24.846,-0.714 -26.188,-1.091C-27.53,-1.467 -28.966,-1.856 -30.492,-2.259C-32.022,-2.66 -33.442,-3.036 -34.759,-3.389C-36.075,-3.739 -36.84,-3.915 -37.05,-3.915C-37.947,-3.915 -38.643,-3.664 -39.144,-3.162C-39.646,-2.66 -40.025,-1.605 -40.288,0L-42.263,0L-42.263,-23.499L-40.288,-23.499C-39.342,-18.678 -38.103,-14.99 -36.577,-12.428C-35.84,-11.223 -34.853,-10.106 -33.614,-9.074C-32.376,-8.046 -30.981,-7.14 -29.426,-6.363C-27.875,-5.586 -26.201,-4.982 -24.411,-4.555C-22.621,-4.127 -20.802,-3.915 -18.959,-3.915C-16.749,-3.915 -14.762,-4.217 -12.997,-4.821C-11.232,-5.422 -9.73,-6.238 -8.492,-7.269C-7.257,-8.297 -6.307,-9.49 -5.649,-10.847C-4.991,-12.201 -4.661,-13.633 -4.661,-15.139C-4.661,-16.846 -5.15,-18.553 -6.122,-20.262C-7.097,-21.969 -8.743,-23.652 -11.06,-25.308C-13.326,-26.614 -16.013,-28.144 -19.119,-29.902C-25.069,-33.166 -30.364,-36.304 -34.997,-39.317C-37.577,-41.275 -39.539,-43.424 -40.881,-45.759C-42.226,-48.093 -42.897,-50.691 -42.897,-53.554C-42.897,-55.963 -42.37,-58.262 -41.317,-60.447C-40.263,-62.632 -38.802,-64.551 -36.931,-66.21C-35.063,-67.866 -32.837,-69.172 -30.257,-70.125C-27.677,-71.079 -24.884,-71.557 -21.884,-71.557C-18.091,-71.557 -14.063,-70.678 -9.796,-68.921C-8.796,-68.517 -7.953,-68.191 -7.27,-67.94C-6.583,-67.689 -6.031,-67.588 -5.608,-67.638C-4.661,-67.638 -3.9,-67.889 -3.32,-68.392C-2.74,-68.894 -2.292,-69.949 -1.975,-71.557L0,-71.557Z" style="fill:rgb(246,255,244);fill-rule:nonzero;"/>
                    </g>
                    <g transform="matrix(1,0,0,1,201.605,476.278)">
                        <path d="M0,-101.546L1.123,-77.732L-1.722,-77.732C-2.272,-81.926 -3.02,-84.921 -3.969,-86.718C-5.517,-89.614 -7.576,-91.748 -10.147,-93.121C-12.718,-94.494 -16.101,-95.181 -20.294,-95.181L-34.598,-95.181L-34.598,-17.598C-34.598,-11.357 -33.924,-7.463 -32.576,-5.916C-30.679,-3.819 -27.758,-2.771 -23.814,-2.771L-20.294,-2.771L-20.294,0L-63.354,0L-63.354,-2.771L-59.76,-2.771C-55.466,-2.771 -52.421,-4.069 -50.623,-6.665C-49.525,-8.262 -48.976,-11.907 -48.976,-17.598L-48.976,-95.181L-61.182,-95.181C-65.925,-95.181 -69.295,-94.831 -71.292,-94.132C-73.888,-93.184 -76.11,-91.361 -77.957,-88.666C-79.804,-85.97 -80.903,-82.325 -81.252,-77.732L-84.098,-77.732L-82.9,-101.546L0,-101.546Z" style="fill:rgb(246,255,244);fill-rule:nonzero;"/>
                    </g>
                    <g transform="matrix(1,0,0,1,233.327,431.249)">
                        <path d="M0,17.351L-12.057,-11.376L-24.428,17.351L0,17.351ZM1.468,21.23L-26.053,21.23L-30.876,32.448C-32.064,35.209 -32.658,37.271 -32.658,38.634C-32.658,39.717 -32.144,40.671 -31.11,41.489C-30.082,42.313 -27.853,42.845 -24.428,43.09L-24.428,45.029L-46.812,45.029L-46.812,43.09C-43.841,42.565 -41.919,41.884 -41.045,41.045C-39.263,39.368 -37.289,35.96 -35.122,30.823L-10.117,-27.678L-8.282,-27.678L16.46,31.452C18.452,36.205 20.262,39.288 21.884,40.706C23.512,42.119 25.773,42.915 28.674,43.09L28.674,45.029L0.629,45.029L0.629,43.09C3.46,42.95 5.374,42.478 6.368,41.674C7.366,40.87 7.863,39.892 7.863,38.739C7.863,37.201 7.164,34.772 5.766,31.452L1.468,21.23Z" style="fill:rgb(246,255,244);fill-rule:nonzero;"/>
                    </g>
                    <g transform="matrix(1,0,0,1,307.03,444.563)">
                        <path d="M0,-7.653L15.254,15.098C19.483,21.388 22.621,25.365 24.663,27.022C26.71,28.684 29.303,29.601 32.448,29.775L32.448,31.715L1.94,31.715L1.94,29.775C3.966,29.74 5.469,29.531 6.448,29.146C7.182,28.832 7.783,28.352 8.258,27.706C8.727,27.059 8.964,26.403 8.964,25.739C8.964,24.935 8.807,24.131 8.492,23.328C8.248,22.734 7.286,21.196 5.609,18.715L-6.448,0.472L-21.335,19.553C-22.908,21.58 -23.851,22.933 -24.166,23.617C-24.48,24.296 -24.638,25.005 -24.638,25.739C-24.638,26.857 -24.166,27.783 -23.222,28.517C-22.279,29.251 -20.479,29.671 -17.823,29.775L-17.823,31.715L-43.037,31.715L-43.037,29.775C-41.255,29.601 -39.717,29.234 -38.424,28.674C-36.258,27.766 -34.196,26.543 -32.239,25.005C-30.282,23.467 -28.045,21.108 -25.529,17.928L-8.754,-3.25L-22.751,-23.746C-26.56,-29.303 -29.792,-32.947 -32.448,-34.675C-35.104,-36.407 -38.162,-37.323 -41.622,-37.428L-41.622,-39.368L-8.754,-39.368L-8.754,-37.428C-11.55,-37.323 -13.465,-36.869 -14.493,-36.065C-15.526,-35.261 -16.041,-34.37 -16.041,-33.392C-16.041,-32.099 -15.202,-30.211 -13.525,-27.73L-2.621,-11.427L10.012,-27.416C11.48,-29.303 12.379,-30.596 12.711,-31.295C13.043,-31.994 13.21,-32.71 13.21,-33.444C13.21,-34.178 13,-34.824 12.581,-35.384C12.057,-36.117 11.393,-36.632 10.589,-36.931C9.785,-37.226 8.125,-37.393 5.609,-37.428L5.609,-39.368L30.823,-39.368L30.823,-37.428C28.831,-37.323 27.206,-37.009 25.948,-36.484C24.061,-35.681 22.331,-34.597 20.759,-33.234C19.186,-31.871 16.967,-29.355 14.101,-25.686L0,-7.653Z" style="fill:rgb(246,255,244);fill-rule:nonzero;"/>
                    </g>
                </g>
            </g>
        </g>
    </g>
</svg>
